HIERARCHY
ROOT Hips
{
	OFFSET 0.00000 0.00000 0.00000
	CHANNELS 6 Xposition Yposition Zposition Zrotation Yrotation Xrotation 
	JOINT LHipJoint
	{
		OFFSET 0 0 0
		CHANNELS 3 Zrotation Yrotation Xrotation
		JOINT LeftHip
		{
			OFFSET 1.48416 -1.82041 0.59464
			CHANNELS 3 Zrotation Yrotation Xrotation
			JOINT LeftKnee
			{
				OFFSET 2.43280 -6.68407 0.00000
				CHANNELS 3 Zrotation Yrotation Xrotation
				JOINT LeftAnkle
				{
					OFFSET 2.68325 -7.37216 0.00000
					CHANNELS 3 Zrotation Yrotation Xrotation
					JOINT LeftToe
					{
						OFFSET 0.15365 -0.42214 1.91990
						CHANNELS 3 Zrotation Yrotation Xrotation
						End Site
						{
							OFFSET 0.00000 -0.00000 0.99320
						}
					}
				}
			}
		}
	}
	JOINT RHipJoint
	{
		OFFSET 0 0 0
		CHANNELS 3 Zrotation Yrotation Xrotation
		JOINT RightHip
		{
			OFFSET -1.70852 -1.82040 0.59464
			CHANNELS 3 Zrotation Yrotation Xrotation
			JOINT RightKnee
			{
				OFFSET -2.50396 -6.87957 0.00000
				CHANNELS 3 Zrotation Yrotation Xrotation
				JOINT RightAnkle
				{
					OFFSET -2.67204 -7.34139 0.00000
					CHANNELS 3 Zrotation Yrotation Xrotation
					JOINT RightToe
					{
						OFFSET -0.17346 -0.47657 2.02009
						CHANNELS 3 Zrotation Yrotation Xrotation
						End Site
						{
							OFFSET -0.00000 -0.00000 1.04609
						}
					}
				}
			}
		}
	}
	JOINT lowerback
	{
		OFFSET 0 0 0
		CHANNELS 3 Zrotation Yrotation Xrotation
		JOINT Chest
		{
			OFFSET -0.01022 1.99636 -0.30653
			CHANNELS 3 Zrotation Yrotation Xrotation
			JOINT Chest2
			{
				OFFSET -0.01683 2.01212 0.04808
				CHANNELS 3 Zrotation Yrotation Xrotation
				JOINT lowerneck
				{
					OFFSET 0 0 0
					CHANNELS 3 Zrotation Yrotation Xrotation
					JOINT Neck
					{
						OFFSET -0.03080 1.91178 0.03911
						CHANNELS 3 Zrotation Yrotation Xrotation
						JOINT Head
						{
							OFFSET 0.10605 1.89839 -0.23433
							CHANNELS 3 Zrotation Yrotation Xrotation
							End Site
							{
								OFFSET 0.03474 1.92469 -0.08609
							}
						}
					}
				}
				JOINT LeftCollar
				{
					OFFSET 0 0 0
					CHANNELS 3 Zrotation Yrotation Xrotation
					JOINT LeftShoulder
					{
						OFFSET 3.78977 1.27972 -0.24661
CHANNELS 3 Zrotation Xrotation Yrotation
						JOINT LeftElbow
						{
OFFSET 0 -5.641470 -0.000000
CHANNELS 3 Zrotation Xrotation Yrotation
							JOINT LeftWrist
							{
OFFSET 0 -2.864440 -0.000000
CHANNELS 3 Zrotation Xrotation Yrotation
								JOINT lhand
								{
									OFFSET 0 0 0
CHANNELS 3 Zrotation Xrotation Yrotation
									JOINT LFingers
									{
OFFSET 0 -0.722120 -0.000000
CHANNELS 3 Zrotation Xrotation Yrotation
										End Site
										{
OFFSET 0 -0.582190 -0.000000
										}
									}
								}
								JOINT LThumb
								{
OFFSET 0 0.000000 0.000000
CHANNELS 3 Zrotation Xrotation Yrotation
									End Site
									{
OFFSET 0 -0.591080 0.591080
									}
								}
							}
						}
					}
				}
				JOINT RightCollar
				{
					OFFSET 0 0 0
					CHANNELS 3 Zrotation Yrotation Xrotation
					JOINT RightShoulder
					{
						OFFSET -3.41176 1.18605 -0.57927
CHANNELS 3 Zrotation Xrotation Yrotation
						JOINT RightElbow
						{
OFFSET 0 -5.447290 -0.000000
CHANNELS 3 Zrotation Xrotation Yrotation
							JOINT RightWrist
							{
OFFSET 0 -3.088210 -0.000000
CHANNELS 3 Zrotation Xrotation Yrotation
								JOINT rhand
								{
									OFFSET 0 0 0
CHANNELS 3 Zrotation Xrotation Yrotation
									JOINT RFingers
									{
OFFSET 0 -0.821050 -0.000000
CHANNELS 3 Zrotation Xrotation Yrotation
										End Site
										{
OFFSET 0 -0.661950 -0.000000
										}
									}
								}
								JOINT RThumb
								{
OFFSET 0 0.000000 0.000000
CHANNELS 3 Zrotation Xrotation Yrotation
									End Site
									{
OFFSET 0 -0.672060 0.672060
									}
								}
							}
						}
					}
				}
			}
		}
	}
}
MOTION
Frames: 11
Frame Time: 0.008333333333333333
3.528718 17.604898 -0.515144 -358.005873 110.111599 -356.877541 0.000000 0.000000 0.000000 -17.194452 -6.320970 -7.733625 1.101504 6.668812 18.737934 -1.093097 -19.011153 0.967733 0.590650 4.920307 13.681391 0.000000 0.000000 0.000000 18.836523 -6.407336 2.918116 -0.405227 -4.086734 11.320672 -2.267348 -7.640013 -31.978694 -0.018236 0.871028 -2.393978 2.002338 0.362686 7.869280 -2.718479 0.543854 -3.186160 -4.085432 0.103176 -7.743398 -7.633592 -10.683453 -2.410394 9.036060 -14.647334 7.864779 3.208590 -7.110899 3.972350 0.000000 0.000000 0.000000 104.615419 -46.002505 38.479538 93.842766 -59.944119 63.327308 21.710506 -97.274792 -22.675346 0.000000 0.000000 0.000000 -7.125000 0.000000 0.000000 -7.688817 54.029845 1.714369 0.000000 0.000000 0.000000 -8.713448 13.580893 27.983325 -18.714790 -29.062736 -4.891498 -14.285890 9.316186 -11.738372 0.000000 0.000000 0.000000 7.125000 0.000000 0.000000 8.999248 17.964667 5.857706
3.522127 17.617378 -0.486185 -358.342880 108.329638 -357.387556 0.000000 0.000000 0.000000 -17.282893 -4.734404 -7.453285 1.028027 6.449469 18.094363 -1.008697 -18.351002 0.740694 0.601765 4.965565 13.810454 0.000000 0.000000 0.000000 18.552496 -5.354929 2.647175 -0.466818 -4.382404 12.155237 -2.147953 -7.168982 -30.989748 -0.032903 1.169696 -3.215792 1.204817 0.015448 7.947229 -2.010054 0.030841 -3.170042 -2.806520 -0.092806 -7.808831 -9.645066 -14.225077 0.685622 12.642842 -19.545627 3.769531 4.443187 -9.642018 3.209805 0.000000 0.000000 0.000000 85.872234 -38.900127 21.865133 104.748163 -59.161771 72.736393 13.327042 -94.289889 -19.180514 0.000000 0.000000 0.000000 -7.125000 0.000000 0.000000 -14.602892 49.087110 1.502124 0.000000 0.000000 0.000000 -9.841820 11.502995 29.477302 -17.554934 -27.583518 -4.341146 -13.819078 10.280668 -11.747327 0.000000 0.000000 0.000000 7.125000 0.000000 0.000000 9.324240 17.985296 6.070623
3.504046 17.622166 -0.557484 -361.980509 101.816871 -361.302723 0.000000 0.000000 0.000000 -18.611215 -1.132613 -5.990036 0.820565 5.779862 16.146975 -0.652497 -16.039860 -2.200309 0.307122 3.562817 9.849674 0.000000 0.000000 0.000000 16.587431 -2.773916 1.678441 -0.629097 -5.075234 14.123357 -1.856808 -4.950536 -27.906608 -0.097941 2.018148 -5.555852 0.817180 -1.226933 8.015319 -1.639328 -1.655824 -3.050679 -1.946285 -0.889425 -7.792555 -7.511135 -18.004767 3.754890 15.655250 -24.316627 -1.441996 5.086053 -12.212485 1.830760 0.000000 0.000000 0.000000 56.288017 -10.390708 -2.311183 105.487743 -59.073559 73.371008 -4.360751 -105.328745 -27.108295 0.000000 0.000000 0.000000 -7.125000 0.000000 0.000000 -35.450309 53.368100 8.096547 0.000000 0.000000 0.000000 -9.597254 5.203104 33.308884 -17.620250 -27.668179 -4.371464 -13.819073 9.609089 -12.270819 0.000000 0.000000 0.000000 7.125000 0.000000 0.000000 9.315488 17.455111 6.174863
3.510418 17.619912 -0.649392 -367.143546 95.153986 -366.744800 0.000000 0.000000 0.000000 -19.248632 1.315226 -4.594927 0.704191 5.363749 14.949060 -0.251245 -13.155287 -5.590733 0.198759 2.870993 7.919900 0.000000 0.000000 0.000000 15.437261 -0.178235 1.100563 -0.708614 -5.380219 14.996197 -1.551606 -2.589907 -24.586779 -0.204262 2.910313 -8.029094 1.471838 -1.068080 7.591965 -1.798962 -1.384920 -2.996186 -2.529306 -0.791537 -7.499526 -6.536153 -16.763646 2.985849 14.799000 -22.540796 -1.528880 4.833984 -11.309156 1.513966 0.000000 0.000000 0.000000 34.008947 7.133932 -18.754355 80.672441 -59.667069 51.931176 2.752591 -90.925351 -20.551227 0.000000 0.000000 0.000000 -7.125000 0.000000 0.000000 -24.952698 48.841836 2.508078 0.000000 0.000000 0.000000 -7.677964 4.379284 35.253112 -20.199859 -30.882296 -5.633543 -13.773293 8.812762 -12.102646 0.000000 0.000000 0.000000 7.125000 0.000000 0.000000 9.349826 17.628366 6.162150
3.502395 17.619735 -0.698123 -407.335569 91.064786 -407.088499 0.000000 0.000000 0.000000 -19.761288 2.591291 -3.864452 0.651925 5.164786 14.379039 0.067712 -10.436931 -8.354923 0.121875 2.249641 6.196033 0.000000 0.000000 0.000000 14.833399 2.051459 0.545499 -0.778280 -5.632639 15.722141 -1.344878 -1.336665 -22.434630 -0.283325 3.422794 -9.458199 1.265511 -0.712640 7.378010 -1.857464 -0.934769 -3.113311 -2.539501 -0.562668 -7.471917 -5.557894 -11.857838 -1.067126 13.881887 -16.040012 1.142364 4.486523 -7.830959 2.109371 0.000000 0.000000 0.000000 20.433085 14.143260 -28.600087 45.349970 -50.935715 22.511040 3.125366 -68.599378 -17.802039 0.000000 0.000000 0.000000 -7.125000 0.000000 0.000000 -23.341949 46.387029 0.844475 0.000000 0.000000 0.000000 -6.157118 4.907225 34.278132 -20.046226 -30.698015 -5.554972 -13.093642 9.266353 -11.938183 0.000000 0.000000 0.000000 7.125000 0.000000 0.000000 9.825063 17.837693 6.438708
3.507754 17.612526 -0.749452 -521.286287 94.394835 -521.058397 0.000000 0.000000 0.000000 -20.976157 4.068437 -3.047852 0.571485 4.841247 13.456437 0.395117 -6.953029 -11.482878 0.017122 0.844154 2.319992 0.000000 0.000000 0.000000 13.603525 4.478517 -0.758757 -0.952461 -6.214831 17.409170 -1.183297 1.033427 -20.250735 -0.324222 3.659306 -10.120094 0.787402 -0.549108 6.517775 -1.993230 -0.768968 -3.008116 -2.437213 -0.454941 -6.847645 -4.038518 -8.270357 -4.057423 13.922663 -11.346792 2.799910 4.373302 -5.299584 2.549203 0.000000 0.000000 0.000000 18.421767 15.694612 -35.756317 20.175818 -30.850339 5.622834 -3.323903 -60.820668 -25.747618 0.000000 0.000000 0.000000 -7.125000 0.000000 0.000000 -33.533196 52.418665 6.741762 0.000000 0.000000 0.000000 -5.348548 4.845031 33.322476 -18.891811 -29.283973 -4.977889 -13.282843 11.310355 -11.987817 0.000000 0.000000 0.000000 7.125000 0.000000 0.000000 9.692543 17.775861 6.362757
3.522246 17.584283 -0.833084 -528.369033 102.177434 -528.987297 0.000000 0.000000 0.000000 -22.851073 6.405975 -0.923841 0.434281 4.228936 11.721694 0.714607 -1.988969 -15.417095 0.015600 0.805319 2.213336 0.000000 0.000000 0.000000 11.826409 7.718416 -2.229428 -1.231123 -7.036781 19.824301 -0.911198 4.659064 -17.077254 -0.336483 3.727764 -10.311999 0.197246 -0.453774 6.288287 -1.755485 -0.681267 -2.823133 -1.865297 -0.378558 -6.502702 -3.565394 -5.289844 -6.640427 13.721371 -7.675006 5.883187 4.354361 -3.260558 3.532564 0.000000 0.000000 0.000000 24.222642 10.954191 -8.372082 4.759358 -8.178011 0.340520 8.999769 -16.495889 -17.914461 0.000000 0.000000 0.000000 -7.125000 0.000000 0.000000 -18.119092 47.255509 1.037927 0.000000 0.000000 0.000000 -6.466812 4.502684 34.666848 -18.312374 -28.555358 -4.697641 -13.856338 9.643203 -11.965421 0.000000 0.000000 0.000000 7.125000 0.000000 0.000000 9.294519 17.762000 6.097068
3.536375 17.563175 -0.915026 -531.689758 109.327843 -532.906519 0.000000 0.000000 0.000000 -24.039836 7.334087 1.173859 0.319663 3.634565 10.050732 0.929191 2.884532 -19.467785 0.048887 1.426917 3.924204 0.000000 0.000000 0.000000 11.133172 11.197767 -3.335326 -1.411899 -7.515261 21.251071 -0.635732 7.146212 -14.320185 -0.305879 3.554738 -9.827362 0.325763 -0.372985 5.754956 -1.353054 -0.538584 -2.731942 -1.534147 -0.304110 -6.091001 -2.615867 -3.570186 -7.508390 12.879761 -5.627024 8.158891 4.055816 -2.146929 4.125183 0.000000 0.000000 0.000000 41.593347 8.070476 0.550157 5.744851 -9.835894 0.494730 15.789170 -23.213153 -19.959803 0.000000 0.000000 0.000000 -7.125000 0.000000 0.000000 -12.554737 50.235294 1.642667 0.000000 0.000000 0.000000 -7.571252 4.948883 31.541802 -18.420095 -28.691682 -4.749198 -13.567888 10.710938 -12.627470 0.000000 0.000000 0.000000 7.125000 0.000000 0.000000 9.483829 17.110955 6.362080
3.503504 17.553543 -1.001691 -534.460189 112.982030 -536.731426 0.000000 0.000000 0.000000 -23.921963 7.675072 2.465110 0.333045 3.708913 10.259109 1.110859 5.084351 -22.352640 0.102744 2.066715 5.690075 0.000000 0.000000 0.000000 11.674228 12.149785 -2.680696 -1.336999 -7.321525 20.671561 -0.401701 8.301692 -11.881917 -0.259606 3.277702 -9.052877 -0.081501 -0.902253 5.599094 -0.500444 -1.234738 -2.377933 -0.346046 -0.615374 -5.620668 -1.936622 -1.891061 -7.893872 11.177942 -3.421713 9.586319 3.559080 -1.080632 4.397943 0.000000 0.000000 0.000000 59.385179 -0.558786 -4.223846 9.458410 -15.887427 1.323298 19.331401 -33.748766 -18.537694 0.000000 0.000000 0.000000 -7.125000 0.000000 0.000000 -8.675781 49.346083 0.936129 0.000000 0.000000 0.000000 -9.358961 5.393913 29.393645 -17.548055 -27.574601 -4.337983 -13.369144 11.294161 -12.981159 0.000000 0.000000 0.000000 7.125000 0.000000 0.000000 9.615767 16.767174 6.526255
3.429644 17.549183 -1.107204 -534.581265 117.647135 -537.223082 0.000000 0.000000 0.000000 -24.897276 10.764665 2.906227 0.213284 2.973489 8.204915 1.151757 6.090320 -23.326607 0.255886 3.254353 8.987733 0.000000 0.000000 0.000000 11.039526 14.230026 -3.901087 -1.434588 -7.572885 21.424139 -0.153031 10.006693 -9.328257 -0.161950 2.592770 -7.146953 -1.826368 -1.865756 5.225240 -0.683470 -2.656710 -2.291912 0.570895 -1.262185 -5.256947 -2.692944 -1.441762 -6.419520 11.659756 -2.555246 7.138188 3.872444 -0.796286 3.364858 0.000000 0.000000 0.000000 68.129836 -7.302628 -5.121726 18.437370 -28.711990 4.758327 20.095148 -36.011659 -13.852089 0.000000 0.000000 0.000000 -7.125000 0.000000 0.000000 -6.786135 44.584876 -0.069965 0.000000 0.000000 0.000000 -8.737817 3.991336 27.918830 -16.706236 -26.468868 -3.955563 -13.162305 13.060410 -12.587244 0.000000 0.000000 0.000000 7.125000 0.000000 0.000000 9.764485 17.178644 6.541205
3.354557 17.537047 -1.151507 -536.037020 124.235264 -538.782856 0.000000 0.000000 0.000000 -25.072463 16.276148 1.195703 0.221787 3.031669 8.366826 1.355088 4.765982 -24.168869 0.592980 4.929500 13.707647 0.000000 0.000000 0.000000 11.358512 16.617171 -5.295948 -1.450131 -7.612109 21.541897 0.215536 12.019046 -4.988835 -0.035206 1.210264 -3.327631 -3.444352 -3.400885 4.060154 -1.751343 -4.809381 -2.323478 0.486779 -2.301306 -4.547252 -6.604326 -7.321265 -3.218635 14.346316 -10.304687 4.824721 4.977158 -4.818271 3.063295 0.000000 0.000000 0.000000 67.716234 -13.319466 -2.696693 28.710542 -39.761735 10.575288 20.094136 -39.360377 -14.329964 0.000000 0.000000 0.000000 -7.125000 0.000000 0.000000 -6.887453 45.084584 0.014463 0.000000 0.000000 0.000000 -6.796502 2.763670 34.252097 -17.157249 -27.064674 -4.158600 -13.232620 11.223401 -12.712499 0.000000 0.000000 0.000000 7.125000 0.000000 0.000000 9.713815 17.047634 6.534554
